#!OML:ASF F:\VICON\USERDATA\INSTALL\rory3\rory3.ASF
:FULLY-SPECIFIED
:DEGREES
935
root 0.819017 15.7008 3.10081 7.07608 -41.5716 12.4778
lowerback 0.191337 5.42401 5.92096
upperback 2.82069 7.17067 -1.23651
thorax 3.70762 3.75995 -4.29968
lowerneck 2.64627 -9.80495 -12.1865
upperneck 48.4129 -19.1497 7.76053
head 21.6394 -9.32663 3.12548
rclavicle -1.64594e-013 1.90833e-014
rhumerus -25.2312 17.4099 -96.6521
rradius 19.4311
rwrist 20.1323
rhand -26.5306 -54.474
rfingers 7.12502
rthumb 0.0332359 -84.4538
lclavicle -1.64594e-013 1.90833e-014
lhumerus -63.9712 -82.3597 140.269
lradius 83.2751
lwrist 27.085
lhand 2.84378 -19.5461
lfingers 7.12502
lthumb 28.3113 8.33397
rfemur -31.8056 -1.0622 -4.13677
rtibia 75.3461
rfoot -3.13014 -10.5919
rtoes -31.0342
lfemur -50.5633 -20.606 -29.2471
ltibia 57.2253
lfoot -20.3286 -2.76623
ltoes 18.8867
936
root 0.823011 15.6954 3.10322 7.18759 -41.5255 12.6138
lowerback -0.0277469 5.44626 5.82579
upperback 2.76671 7.19274 -1.28008
thorax 3.77049 3.76947 -4.27199
lowerneck 2.70969 -9.87515 -12.1026
upperneck 48.3936 -19.2418 7.69531
head 21.5865 -9.3536 3.0621
rclavicle -1.59028e-015 2.38542e-014
rhumerus -25.2804 17.2541 -96.5864
rradius 19.4494
rwrist 20.3222
rhand -26.5537 -54.3781
rfingers 7.12502
rthumb 0.0109259 -84.3579
lclavicle -1.59028e-015 2.38542e-014
lhumerus -65.0699 -82.4257 141.401
lradius 83.2746
lwrist 26.9415
lhand 2.63702 -19.5021
lfingers 7.12502
lthumb 28.1136 8.41059
rfemur -32.0308 -1.25832 -4.28969
rtibia 75.4369
rfoot -3.0741 -10.4915
rtoes -30.5576
lfemur -50.8015 -20.7611 -29.2799
ltibia 57.2325
lfoot -20.3167 -2.6133
ltoes 18.6818
937
root 0.835024 15.6786 3.10888 7.47295 -41.3696 12.9568
lowerback -0.580058 5.40959 5.6792
upperback 2.62581 7.12463 -1.39664
thorax 3.92212 3.73416 -4.26873
lowerneck 2.77468 -9.88001 -12.0898
upperneck 48.362 -19.2467 7.68874
head 21.533 -9.35708 3.05929
rclavicle -1.20066e-013 4.29375e-014
rhumerus -25.3609 17.1683 -96.5507
rradius 19.4472
rwrist 20.6211
rhand -26.7306 -54.0828
rfingers 7.12502
rthumb -0.159853 -84.0624
lclavicle -1.20066e-013 4.29375e-014
lhumerus -65.304 -82.403 141.657
lradius 83.2839
lwrist 26.9855
lhand 3.03257 -19.3368
lfingers 7.12502
lthumb 28.4917 8.51322
rfemur -32.5534 -1.73469 -4.69411
rtibia 75.602
rfoot -3.2064 -10.2771
rtoes -30.7561
lfemur -51.4297 -21.0888 -29.4086
ltibia 57.2633
lfoot -20.2853 -2.23383
ltoes 17.5026
938
root 0.83675 15.6743 3.10445 7.41127 -41.4853 13.0991
lowerback -0.565167 5.43504 5.51085
upperback 2.63377 7.1639 -1.42085
thorax 3.90809 3.74927 -4.20013
lowerneck 2.76016 -9.8704 -12.1722
upperneck 48.3272 -19.2714 7.80976
head 21.5656 -9.37145 3.13019
rclavicle -8.50798e-014 -1.27222e-014
rhumerus -25.2725 17.0301 -96.4753
rradius 19.3814
rwrist 20.9211
rhand -26.6875 -54.3063
rfingers 7.12502
rthumb -0.118263 -84.286
lclavicle -8.50798e-014 -1.27222e-014
lhumerus -65.3756 -82.5097 141.724
lradius 83.3069
lwrist 26.9116
lhand 2.65657 -19.3616
lfingers 7.12502
lthumb 28.1323 8.54804
rfemur -32.7031 -1.63461 -4.84028
rtibia 75.6987
rfoot -3.35856 -10.2626
rtoes -30.7893
lfemur -51.5036 -21.004 -29.5257
ltibia 57.2901
lfoot -20.3466 -1.98201
ltoes 16.4359
939
root 0.838687 15.6745 3.10516 7.40945 -41.559 13.0967
lowerback -0.628774 5.48 5.52959
upperback 2.69447 7.21878 -1.41853
thorax 4.0163 3.78083 -4.19379
lowerneck 2.7586 -9.87577 -12.2587
upperneck 48.2565 -19.3047 7.93041
head 21.5649 -9.38852 3.20024
rclavicle -1.20066e-013 3.97569e-014
rhumerus -25.1996 16.9882 -96.3976
rradius 19.4114
rwrist 20.9543
rhand -26.5468 -54.817
rfingers 7.12502
rthumb 0.0176711 -84.7967
lclavicle -1.20066e-013 3.97569e-014
lhumerus -65.4915 -82.6639 141.871
lradius 83.3384
lwrist 26.8604
lhand 2.08682 -19.4223
lfingers 7.12502
lthumb 27.5876 8.57567
rfemur -32.765 -1.57534 -4.84364
rtibia 75.709
rfoot -3.27805 -10.2704
rtoes -31.0083
lfemur -51.5056 -20.9441 -29.5501
ltibia 57.2788
lfoot -20.3519 -2.02675
ltoes 17.3915
